<svg width="177" height="131" viewBox="0 0 177 131" fill="none" xmlns="http://www.w3.org/2000/svg">
<path d="M18.3482 48.2591C17.7755 47.7627 17.4891 47.1709 17.4891 46.4836C17.4891 45.7964 17.8136 45.2427 18.4627 44.8227C23.77 40.4318 28.6573 36.7664 33.1245 33.8264C33.5064 33.6355 33.9264 33.54 34.3845 33.54C34.8809 33.54 35.32 33.75 35.7018 34.17C36.1218 34.59 36.3318 35.0673 36.3318 35.6018C36.3318 36.1364 36.1791 36.6136 35.8736 37.0336C35.4918 37.3009 31.1391 40.47 22.8155 46.5409C23.7318 47.2282 25.7745 48.6409 28.9436 50.7791C32.1509 52.9173 34.4991 54.5973 35.9882 55.8191C36.2936 56.3155 36.4464 56.7927 36.4464 57.2509C36.4464 57.6709 36.1982 58.11 35.7018 58.5682C35.2055 58.9882 34.69 59.1982 34.1555 59.1982C33.6591 59.1982 33.3345 59.1409 33.1818 59.0264C31.5782 57.7664 29.1918 56.0482 26.0227 53.8718C22.8918 51.6955 20.3336 49.8245 18.3482 48.2591Z" fill="url(#paint0_linear)"/>
<path d="M120.338 60.8018C120.338 60.6491 120.395 60.3818 120.51 60C122.992 54.1582 125.703 47.3809 128.643 39.6682C131.583 31.9555 134.294 25.1209 136.775 19.1645C137.31 18.1718 138.093 17.6755 139.124 17.6755C139.582 17.6755 139.964 17.8091 140.269 18.0764C140.575 18.3436 140.727 18.7064 140.727 19.1645C140.727 19.5845 140.25 20.9018 139.295 23.1164C138.341 25.3309 136.031 31.1155 132.365 40.47C128.738 49.7864 125.951 56.6782 124.004 61.1455C123.355 62.0236 122.648 62.4627 121.885 62.4627C120.854 62.4627 120.338 61.9091 120.338 60.8018ZM146.045 33.3109C146.465 33.3109 146.885 33.3873 147.305 33.54C147.725 33.6927 148.221 33.96 148.794 34.3418C149.405 34.6855 149.959 35.0482 150.455 35.43C150.99 35.7736 151.715 36.27 152.631 36.9191C153.548 37.5682 154.77 38.4082 156.297 39.4391C157.824 40.47 159.829 41.9973 162.311 44.0209C163.151 44.7464 163.571 45.4336 163.571 46.0827C163.571 46.6936 163.265 47.3236 162.654 47.9727C162.311 48.3164 161.967 48.66 161.623 49.0036C161.28 49.3473 160.344 50.0536 158.817 51.1227L157.099 52.3255C156.335 52.86 154.999 53.7764 153.09 55.0745C151.181 56.3727 149.424 57.69 147.821 59.0264C147.63 59.1409 147.267 59.1982 146.732 59.1982C146.198 59.1982 145.682 58.9691 145.186 58.5109C144.728 58.0527 144.499 57.5564 144.499 57.0218C144.499 56.4491 144.613 55.9909 144.842 55.6473C146.675 54.3109 149.042 52.65 151.944 50.6645C154.884 48.6791 157.061 47.1327 158.473 46.0255C157.366 45.1855 155.629 43.9827 153.261 42.4173C150.894 40.8136 148.202 38.9618 145.186 36.8618C144.69 36.2509 144.441 35.6782 144.441 35.1436C144.441 34.6091 144.594 34.17 144.9 33.8264C145.243 33.4827 145.625 33.3109 146.045 33.3109Z" fill="url(#paint1_linear)"/>
<path d="M106.75 23.118L90.1858 14.1285C86.8222 12.3599 84.9361 12.2722 81.5724 14.1285L64.6769 23.118C61.5216 25.3782 62.3579 28.0776 66.3333 30.2475C70.3088 32.4174 81.5724 38.307 81.5724 38.307" stroke="url(#paint2_linear)" stroke-width="3.81818" stroke-linecap="round"/>
<path d="M91.934 69.3773L109.348 58.6799C111.428 56.6468 112.064 54.977 112.25 51.0883V32.4541C111.051 28.1707 109.287 27.4909 105.8 29.3484L90.6441 38.6655C87.2913 40.1057 86.3881 42.3447 86.1295 47.2924V66.9618C85.2265 71.4937 84.2661 71.9389 80.3249 69.3773L63.8787 59.7152C60.1978 57.1022 59.9385 55.0085 60.009 51.0883V33.4893" stroke="url(#paint3_linear)" stroke-width="3.81818" stroke-linecap="round"/>
<rect width="8.30482" height="4.2296" rx="2.1148" transform="matrix(0.885125 0.465353 -0.442763 0.896639 65.9975 38.2512)" fill="url(#paint4_linear)"/>
<rect width="4.83091" height="4.2296" rx="2.1148" transform="matrix(0.885125 0.465353 -0.442763 0.896639 75.6075 42.5386)" fill="url(#paint5_linear)"/>
<rect width="16.9928" height="4.2296" rx="2.1148" transform="matrix(0.885125 0.465353 -0.442763 0.896639 64.6599 46.6862)" fill="url(#paint6_linear)"/>
<rect width="17.0316" height="4.22027" rx="2.11013" transform="matrix(0.842334 -0.538956 0.5151 0.85713 91.625 47.4863)" fill="url(#paint7_linear)"/>
<rect width="7.88612" height="4.22027" rx="2.11013" transform="matrix(0.842334 -0.538956 0.5151 0.85713 91.625 56.7451)" fill="url(#paint8_linear)"/>
<rect width="4.52277" height="4.22027" rx="2.11013" transform="matrix(0.842334 -0.538956 0.5151 0.85713 99.875 51.0699)" fill="url(#paint9_linear)"/>
<rect width="5.57693" height="5.65516" rx="2.78847" transform="matrix(0.842334 -0.538956 0.5151 0.85713 83.407 20.0311)" fill="url(#paint10_linear)"/>
<rect width="5.57693" height="5.65516" rx="2.78847" transform="matrix(0.842334 -0.538956 0.5151 0.85713 73.75 24.2874)" fill="url(#paint11_linear)"/>
<rect width="5.57693" height="5.65516" rx="2.78847" transform="matrix(0.842334 -0.538956 0.5151 0.85713 82 29.9625)" fill="url(#paint12_linear)"/>
<rect width="5.57693" height="5.65516" rx="2.78847" transform="matrix(0.842334 -0.538956 0.5151 0.85713 90.25 25.7062)" fill="url(#paint13_linear)"/>
<path d="M8.28653 115.838C8.14186 113.709 8.06953 110.837 8.06953 107.22C8.06953 103.583 8.1212 101.227 8.22453 100.152C8.32786 99.4907 8.78253 99.0567 9.58853 98.85C10.3945 98.6227 11.4589 98.509 12.7815 98.509C14.7242 98.509 16.3569 98.9327 17.6795 99.78C19.0229 100.607 19.6945 101.836 19.6945 103.469C19.6945 104.812 19.5085 105.939 19.1365 106.848C18.7645 107.737 18.2995 108.398 17.7415 108.832C16.8322 109.535 15.4889 109.886 13.7115 109.886C12.9469 109.886 11.9445 109.783 10.7045 109.576C10.8079 113.709 10.8492 116.313 10.8285 117.388C10.8079 118.463 10.4462 119 9.74353 119C9.28886 119 8.99953 118.917 8.87553 118.752C8.75153 118.587 8.66886 118.473 8.62753 118.411C8.5862 118.328 8.54486 118.215 8.50353 118.07C8.4622 117.925 8.4312 117.812 8.41053 117.729C8.38986 117.626 8.3692 117.481 8.34853 117.295C8.34853 117.109 8.3382 116.964 8.31753 116.861C8.29686 116.551 8.28653 116.21 8.28653 115.838ZM17.1215 103.562C17.1215 102.715 16.6669 102.053 15.7575 101.578C14.8482 101.082 13.8769 100.834 12.8435 100.834C11.8102 100.834 11.0869 100.927 10.6735 101.113C10.5909 102.332 10.5495 103.459 10.5495 104.492C10.5495 105.505 10.5909 106.424 10.6735 107.251C11.2315 107.313 11.6139 107.365 11.8205 107.406C12.3579 107.468 12.8125 107.499 13.1845 107.499C13.5772 107.499 13.8355 107.499 13.9595 107.499C14.1042 107.478 14.3625 107.447 14.7345 107.406C15.1272 107.344 15.4062 107.251 15.5715 107.127C15.7369 107.003 15.9435 106.838 16.1915 106.631C16.4395 106.424 16.6152 106.187 16.7185 105.918C16.9872 105.174 17.1215 104.389 17.1215 103.562ZM22.5293 98.943C22.5913 98.1577 22.7153 97.6513 22.9013 97.424C23.108 97.176 23.4283 97.052 23.8623 97.052C24.751 97.052 25.1953 97.4137 25.1953 98.137C25.1953 98.695 25.1437 100.152 25.0403 102.508C24.9577 104.864 24.9163 106.972 24.9163 108.832C24.9163 110.692 24.9887 112.19 25.1333 113.327C25.3813 115.311 25.7327 116.303 26.1873 116.303C26.642 116.303 26.983 115.983 27.2103 115.342C27.3137 115.094 27.479 114.877 27.7063 114.691C27.9337 114.484 28.223 114.381 28.5743 114.381C29.2977 114.381 29.6593 114.991 29.6593 116.21C29.6593 116.871 29.2977 117.533 28.5743 118.194C27.8717 118.835 27.169 119.155 26.4663 119.155C25.7637 119.155 25.1953 119.041 24.7613 118.814C24.348 118.566 24.007 118.204 23.7383 117.729C23.4903 117.254 23.2837 116.799 23.1183 116.365C22.9737 115.91 22.8703 115.363 22.8083 114.722C22.6843 113.689 22.5913 112.035 22.5293 109.762C22.488 107.468 22.4673 105.288 22.4673 103.221C22.4673 101.134 22.488 99.7077 22.5293 98.943ZM39.5057 104.523C40.415 104.523 40.8697 105.298 40.8697 106.848C40.8697 107.013 40.8697 107.189 40.8697 107.375L40.8077 109.545C40.787 110.227 40.7767 110.899 40.7767 111.56L41.2417 118.566C41.2417 119.083 40.7147 119.341 39.6607 119.341C39.5987 119.341 39.4437 119.341 39.1957 119.341C38.9684 119.341 38.803 119.248 38.6997 119.062C38.617 118.876 38.6067 118.649 38.6687 118.38C38.7514 118.111 38.7307 117.812 38.6067 117.481C37.656 118.494 36.3954 119 34.8247 119C31.9107 119 30.4537 116.747 30.4537 112.242C30.4537 109.741 30.9187 107.85 31.8487 106.569C32.7994 105.288 34.153 104.647 35.9097 104.647C36.7364 104.647 37.563 104.792 38.3897 105.081C38.6584 104.709 39.0304 104.523 39.5057 104.523ZM36.2817 107.344C35.1037 107.344 34.2254 107.685 33.6467 108.367C33.068 109.049 32.7787 110.299 32.7787 112.118C32.7787 115.177 33.6054 116.706 35.2587 116.706C35.6927 116.706 36.168 116.51 36.6847 116.117C37.222 115.724 37.594 115.28 37.8007 114.784C38.1934 113.668 38.3897 112.449 38.3897 111.126C38.3897 109.803 38.2244 108.842 37.8937 108.243C37.5837 107.644 37.0464 107.344 36.2817 107.344ZM52.8854 104.678C53.154 104.678 53.4124 104.771 53.6604 104.957C53.929 105.143 54.0634 105.35 54.0634 105.577C54.0634 106.176 53.185 109.421 51.4284 115.311C49.6717 121.201 48.3697 125.334 47.5224 127.711C47.3364 128.269 47.047 128.548 46.6544 128.548C46.2617 128.548 45.9517 128.403 45.7244 128.114C45.497 127.845 45.3834 127.442 45.3834 126.905C45.3834 126.368 45.7244 125.076 46.4064 123.03C47.109 121.005 47.5327 119.713 47.6774 119.155C47.1607 118.287 45.4144 113.947 42.4384 106.135C42.397 106.032 42.3764 105.897 42.3764 105.732C42.3764 105.567 42.5004 105.35 42.7484 105.081C42.9964 104.812 43.3374 104.678 43.7714 104.678C44.2054 104.678 44.5567 104.895 44.8254 105.329C45.1147 106.073 45.59 107.375 46.2514 109.235C46.9127 111.074 47.419 112.407 47.7704 113.234C48.1424 114.061 48.4937 114.918 48.8244 115.807C49.1137 114.836 49.6097 112.955 50.3124 110.165C51.015 107.354 51.418 105.753 51.5214 105.36C51.604 104.905 52.0587 104.678 52.8854 104.678ZM72.7518 98.323C73.1858 98.323 73.4854 98.633 73.6508 99.253C73.5268 101.34 73.3924 102.828 73.2478 103.717C73.1031 104.585 72.9791 105.35 72.8758 106.011C72.7931 106.672 72.7311 107.127 72.6898 107.375C72.6691 107.623 72.5864 108.129 72.4418 108.894C72.2971 109.659 72.1421 110.423 71.9768 111.188C71.8321 111.932 71.7391 112.376 71.6978 112.521C71.6771 112.666 71.4911 113.596 71.1398 115.311C70.7884 117.006 70.5198 118.049 70.3338 118.442C70.1684 118.814 69.8688 119 69.4348 119C69.0214 119 68.6908 118.876 68.4428 118.628C67.4921 117.326 66.5931 115.714 65.7458 113.792C65.5391 113.296 65.3014 112.759 65.0328 112.18C64.7848 111.601 64.5988 111.167 64.4748 110.878L64.1958 110.227C63.7618 110.971 63.1624 112.232 62.3978 114.009C61.6331 115.786 60.9614 117.212 60.3828 118.287C60.0108 118.762 59.5974 119 59.1428 119C58.1921 119 57.4688 116.468 56.9728 111.405C56.9728 111.384 56.9521 111.271 56.9108 111.064C56.8901 110.857 56.8488 110.496 56.7868 109.979C56.7454 109.462 56.6834 108.894 56.6008 108.274C56.5388 107.633 56.2804 105.019 55.8258 100.431C55.8258 100.018 55.9808 99.6457 56.2908 99.315C56.6008 98.9637 56.9418 98.788 57.3138 98.788C57.7684 98.788 58.0784 99.0877 58.2438 99.687C58.8018 106.404 59.3598 111.364 59.9178 114.567C60.0831 114.278 60.5068 113.327 61.1888 111.715C61.8708 110.082 62.4908 108.791 63.0488 107.84C63.6068 106.869 64.1441 106.383 64.6608 106.383C65.0121 106.383 65.3118 106.569 65.5598 106.941C66.8618 110.64 67.9778 113.244 68.9078 114.753C68.9284 114.526 69.0524 113.906 69.2798 112.893L69.6828 110.909C69.6828 110.785 69.7034 110.609 69.7448 110.382C69.8068 110.155 69.8481 109.938 69.8688 109.731C69.9101 109.504 69.9514 109.297 69.9928 109.111L70.3338 107.158C70.8298 104.099 71.1398 101.588 71.2638 99.625C71.3464 99.2737 71.5324 98.974 71.8218 98.726C72.1318 98.4573 72.4418 98.323 72.7518 98.323ZM77.2533 99.408C77.6253 99.408 77.9766 99.5837 78.3073 99.935C78.638 100.286 78.8033 100.658 78.8033 101.051C78.8033 101.423 78.6173 101.805 78.2453 102.198C77.894 102.591 77.522 102.787 77.1293 102.787C76.7366 102.787 76.375 102.622 76.0443 102.291C75.7343 101.96 75.5793 101.537 75.5793 101.02C75.5793 100.028 76.1166 99.4907 77.1913 99.408C77.212 99.408 77.2326 99.408 77.2533 99.408ZM78.5553 115.652L78.5863 117.822C78.5863 118.215 78.4313 118.545 78.1213 118.814C77.8113 119.062 77.4806 119.186 77.1293 119.186C76.6126 119.186 76.344 118.928 76.3233 118.411C76.0546 111.818 75.9203 108.171 75.9203 107.468C75.9203 106.765 75.9513 105.908 76.0133 104.895C76.0546 104.523 76.2923 104.337 76.7263 104.337C77.8216 104.337 78.4416 104.781 78.5863 105.67C78.6483 106.125 78.6793 106.486 78.6793 106.755L78.5553 108.708V115.652ZM82.9149 104.523L84.4649 104.554C84.8162 104.554 85.0126 104.544 85.0539 104.523V98.168C85.0746 97.8167 85.2502 97.517 85.5809 97.269C85.9116 97.021 86.2216 96.897 86.5109 96.897C86.8002 96.897 87.0276 96.99 87.1929 97.176C87.3789 97.362 87.4616 97.6513 87.4409 98.044C87.4202 98.4367 87.4099 100.586 87.4099 104.492L91.0369 104.368C91.6569 104.368 91.9669 104.73 91.9669 105.453C91.9669 105.99 91.8016 106.393 91.4709 106.662C91.1609 106.931 90.8199 107.075 90.4479 107.096C90.0966 107.117 89.7452 107.127 89.3939 107.127L87.5029 107.096C87.5029 107.943 87.5856 109.617 87.7509 112.118C87.9369 114.619 88.0816 116.241 88.1849 116.985C88.2882 117.708 88.3089 118.184 88.2469 118.411C88.1849 118.618 88.0712 118.762 87.9059 118.845C87.6372 118.969 87.2756 119.031 86.8209 119.031C86.3662 119.031 86.0976 118.783 86.0149 118.287C85.6016 115.58 85.3226 111.86 85.1779 107.127C84.9919 107.148 84.2789 107.158 83.0389 107.158C81.7989 107.158 81.1789 106.796 81.1789 106.073C81.1789 105.04 81.7576 104.523 82.9149 104.523ZM96.1132 108.956L96.3612 116.272C96.3612 117.181 96.3198 117.708 96.2372 117.853C96.1958 118.225 96.0718 118.514 95.8652 118.721C95.6792 118.928 95.3072 119.031 94.7492 119.031C94.4805 119.031 94.2635 118.866 94.0982 118.535C93.9328 118.184 93.8398 117.791 93.8192 117.357C93.6745 113.72 93.4782 110.31 93.2302 107.127C93.0028 103.924 92.8892 100.948 92.8892 98.199C92.8892 97.765 93.0338 97.424 93.3232 97.176C93.6125 96.928 93.9535 96.804 94.3462 96.804C94.9248 96.804 95.2658 97.3 95.3692 98.292C95.4932 99.284 95.5655 100.524 95.5862 102.012C95.6275 103.5 95.6688 104.585 95.7102 105.267C96.7435 104.73 97.7768 104.461 98.8102 104.461C101.207 104.461 102.726 105.515 103.367 107.623C103.739 108.822 103.925 110.361 103.925 112.242C103.925 112.862 103.863 113.844 103.739 115.187C103.636 116.51 103.574 117.367 103.553 117.76C103.532 118.153 103.357 118.463 103.026 118.69C102.716 118.897 102.375 119 102.003 119C101.424 119 101.135 118.69 101.135 118.07L101.352 112.676C101.352 112.221 101.331 111.467 101.29 110.413C101.249 109.359 101.032 108.522 100.639 107.902C100.267 107.282 99.6058 106.972 98.6552 106.972C96.9605 106.972 96.1132 107.633 96.1132 108.956ZM115.052 98.726C116.436 98.726 117.966 98.9947 119.64 99.532C120.012 99.8213 120.198 100.142 120.198 100.493C120.198 100.824 120.022 101.123 119.671 101.392C119.34 101.64 118.958 101.764 118.524 101.764C117.408 101.475 116.364 101.33 115.393 101.33C113.161 101.33 111.466 101.991 110.309 103.314C109.151 104.637 108.573 106.6 108.573 109.204C108.573 111.808 109.255 113.844 110.619 115.311C111.321 116.076 112.158 116.458 113.13 116.458C114.101 116.458 115.651 115.941 117.78 114.908C118.524 114.557 119.02 114.381 119.268 114.381C119.805 114.381 120.074 114.66 120.074 115.218C120.074 115.776 119.815 116.241 119.299 116.613C117.521 117.543 116.137 118.173 115.145 118.504C114.153 118.814 113.295 118.969 112.572 118.969C111.084 118.969 109.813 118.421 108.759 117.326C106.878 115.301 105.938 112.542 105.938 109.049C105.938 105.536 106.826 102.942 108.604 101.268C110.402 99.5733 112.551 98.726 115.052 98.726ZM128.284 104.554C129.772 104.554 130.991 105.267 131.942 106.693C132.913 108.119 133.399 109.834 133.399 111.839C133.399 113.823 132.903 115.518 131.911 116.923C130.94 118.328 129.638 119.031 128.005 119.031C126.393 119.031 125.091 118.318 124.099 116.892C123.107 115.445 122.611 113.844 122.611 112.087C122.611 109.834 123.066 108.036 123.975 106.693C124.946 105.267 126.383 104.554 128.284 104.554ZM127.912 107.096C127.044 107.096 126.331 107.551 125.773 108.46C125.215 109.369 124.936 110.33 124.936 111.343C124.936 112.914 125.246 114.112 125.866 114.939C126.486 115.766 127.189 116.179 127.974 116.179C129.379 116.179 130.278 115.569 130.671 114.35C130.836 113.771 130.919 113.048 130.919 112.18C130.919 108.791 129.917 107.096 127.912 107.096ZM142.709 104.492L142.678 98.509C142.678 97.393 143.029 96.835 143.732 96.835C144.455 96.835 144.858 97.145 144.941 97.765C144.982 98.0337 145.034 99.656 145.096 102.632C145.158 105.608 145.251 108.398 145.375 111.002C145.52 113.606 145.592 116.034 145.592 118.287C145.592 118.907 145.127 119.217 144.197 119.217C143.577 119.217 143.267 118.783 143.267 117.915C142.378 118.618 141.324 118.969 140.105 118.969C138.555 118.969 137.294 118.39 136.323 117.233C135.372 116.076 134.897 114.65 134.897 112.955C134.897 111.26 135.238 109.679 135.92 108.212C136.623 106.724 137.708 105.66 139.175 105.019C140.084 104.626 140.963 104.43 141.81 104.43C142.12 104.43 142.42 104.451 142.709 104.492ZM142.864 108.739C142.719 108.284 142.544 107.943 142.337 107.716C142.13 107.468 141.903 107.323 141.655 107.282C141.428 107.22 141.149 107.189 140.818 107.189C140.487 107.189 140.084 107.313 139.609 107.561C139.134 107.809 138.731 108.212 138.4 108.77C137.739 109.886 137.408 111.064 137.408 112.304C137.408 113.523 137.646 114.526 138.121 115.311C138.617 116.076 139.309 116.458 140.198 116.458C141.107 116.458 141.82 116.014 142.337 115.125C142.854 114.236 143.112 113.1 143.112 111.715C143.112 110.165 143.029 109.173 142.864 108.739ZM151.843 104.647C152.939 104.647 153.982 104.967 154.974 105.608C155.966 106.249 156.462 107.044 156.462 107.995C156.462 108.925 156.059 109.834 155.253 110.723C154.447 111.591 153.373 112.118 152.029 112.304C151.451 112.387 150.583 112.428 149.425 112.428C149.653 114.185 150.097 115.342 150.758 115.9C150.965 116.127 151.244 116.241 151.595 116.241C152.877 116.241 153.951 115.838 154.819 115.032C155.687 114.205 156.307 113.792 156.679 113.792C156.845 113.792 157.093 113.947 157.423 114.257C157.754 114.567 157.919 114.856 157.919 115.125C157.919 115.662 157.268 116.437 155.966 117.45C155.388 117.925 154.685 118.328 153.858 118.659C153.052 118.969 152.298 119.124 151.595 119.124C149.797 119.124 148.475 117.967 147.627 115.652C147.09 114.226 146.821 112.655 146.821 110.94C146.821 109.225 147.224 107.747 148.03 106.507C148.836 105.267 150.107 104.647 151.843 104.647ZM151.998 106.786C151.213 106.786 150.541 107.23 149.983 108.119C149.777 108.429 149.58 109.132 149.394 110.227C152.288 110.227 153.734 109.514 153.734 108.088C153.734 107.22 153.156 106.786 151.998 106.786ZM160.258 108.46C160.258 107.241 160.692 106.269 161.56 105.546C162.428 104.823 163.43 104.461 164.567 104.461C165.724 104.461 166.83 104.668 167.884 105.081C168.938 105.494 169.465 106.042 169.465 106.724C169.465 107.075 169.33 107.354 169.062 107.561C168.793 107.768 168.555 107.871 168.349 107.871C168.163 107.871 168.008 107.871 167.884 107.871C167.78 107.85 167.367 107.654 166.644 107.282C165.941 106.91 165.29 106.724 164.691 106.724C164.091 106.724 163.575 106.879 163.141 107.189C162.727 107.478 162.521 107.912 162.521 108.491C162.521 109.07 162.758 109.524 163.234 109.855C163.73 110.186 164.587 110.475 165.807 110.723C167.026 110.95 167.956 111.281 168.597 111.715C169.258 112.149 169.589 112.955 169.589 114.133C169.589 115.848 169.134 117.068 168.225 117.791C167.336 118.494 166.251 118.845 164.97 118.845C163.688 118.845 162.593 118.669 161.684 118.318C160.795 117.967 160.351 117.44 160.351 116.737C160.351 115.931 160.754 115.528 161.56 115.528C161.766 115.528 162.221 115.673 162.924 115.962C163.626 116.251 164.319 116.396 165.001 116.396C165.703 116.396 166.23 116.179 166.582 115.745C166.954 115.29 167.14 114.774 167.14 114.195C167.14 113.616 166.902 113.203 166.427 112.955C165.951 112.686 165.228 112.469 164.257 112.304C163.285 112.139 162.572 111.963 162.118 111.777C160.878 111.281 160.258 110.175 160.258 108.46Z" fill="url(#paint14_linear)"/>
<defs>
<linearGradient id="paint0_linear" x1="42.042" y1="0.497383" x2="23.0847" y2="64.5014" gradientUnits="userSpaceOnUse">
<stop stop-color="#531FC1"/>
<stop offset="0.604167" stop-color="#A082E0"/>
<stop offset="1" stop-color="#3F85C6"/>
</linearGradient>
<linearGradient id="paint1_linear" x1="174.014" y1="0.497383" x2="164.635" y2="68.829" gradientUnits="userSpaceOnUse">
<stop stop-color="#531FC1"/>
<stop offset="0.604167" stop-color="#A082E0"/>
<stop offset="1" stop-color="#3F85C6"/>
</linearGradient>
<linearGradient id="paint2_linear" x1="110.135" y1="12.9158" x2="109.15" y2="33.4118" gradientUnits="userSpaceOnUse">
<stop stop-color="#531FC1"/>
<stop offset="0.604167" stop-color="#A082E0"/>
<stop offset="1" stop-color="#3F85C6"/>
</linearGradient>
<linearGradient id="paint3_linear" x1="116.269" y1="28.6202" x2="113.971" y2="62.7041" gradientUnits="userSpaceOnUse">
<stop stop-color="#531FC1"/>
<stop offset="0.604167" stop-color="#A082E0"/>
<stop offset="1" stop-color="#3F85C6"/>
</linearGradient>
<linearGradient id="paint4_linear" x1="8.94365" y1="0.0243078" x2="8.8005" y2="3.42065" gradientUnits="userSpaceOnUse">
<stop stop-color="#531FC1"/>
<stop offset="0.604167" stop-color="#A082E0"/>
<stop offset="1" stop-color="#3F85C6"/>
</linearGradient>
<linearGradient id="paint5_linear" x1="5.20252" y1="0.0243078" x2="4.95728" y2="3.40892" gradientUnits="userSpaceOnUse">
<stop stop-color="#531FC1"/>
<stop offset="0.604167" stop-color="#A082E0"/>
<stop offset="1" stop-color="#3F85C6"/>
</linearGradient>
<linearGradient id="paint6_linear" x1="18.2999" y1="0.0243078" x2="18.2298" y2="3.42524" gradientUnits="userSpaceOnUse">
<stop stop-color="#531FC1"/>
<stop offset="0.604167" stop-color="#A082E0"/>
<stop offset="1" stop-color="#3F85C6"/>
</linearGradient>
<linearGradient id="paint7_linear" x1="18.3417" y1="0.0242542" x2="18.2721" y2="3.4177" gradientUnits="userSpaceOnUse">
<stop stop-color="#531FC1"/>
<stop offset="0.604167" stop-color="#A082E0"/>
<stop offset="1" stop-color="#3F85C6"/>
</linearGradient>
<linearGradient id="paint8_linear" x1="8.49275" y1="0.0242542" x2="8.34269" y2="3.41248" gradientUnits="userSpaceOnUse">
<stop stop-color="#531FC1"/>
<stop offset="0.604167" stop-color="#A082E0"/>
<stop offset="1" stop-color="#3F85C6"/>
</linearGradient>
<linearGradient id="paint9_linear" x1="4.87068" y1="0.0242542" x2="4.61007" y2="3.399" gradientUnits="userSpaceOnUse">
<stop stop-color="#531FC1"/>
<stop offset="0.604167" stop-color="#A082E0"/>
<stop offset="1" stop-color="#3F85C6"/>
</linearGradient>
<linearGradient id="paint10_linear" x1="6.00593" y1="0.0325006" x2="5.62684" y2="4.54982" gradientUnits="userSpaceOnUse">
<stop stop-color="#531FC1"/>
<stop offset="0.604167" stop-color="#A082E0"/>
<stop offset="1" stop-color="#3F85C6"/>
</linearGradient>
<linearGradient id="paint11_linear" x1="6.00593" y1="0.0325006" x2="5.62684" y2="4.54982" gradientUnits="userSpaceOnUse">
<stop stop-color="#531FC1"/>
<stop offset="0.604167" stop-color="#A082E0"/>
<stop offset="1" stop-color="#3F85C6"/>
</linearGradient>
<linearGradient id="paint12_linear" x1="6.00593" y1="0.0325006" x2="5.62684" y2="4.54982" gradientUnits="userSpaceOnUse">
<stop stop-color="#531FC1"/>
<stop offset="0.604167" stop-color="#A082E0"/>
<stop offset="1" stop-color="#3F85C6"/>
</linearGradient>
<linearGradient id="paint13_linear" x1="6.00593" y1="0.0325006" x2="5.62684" y2="4.54982" gradientUnits="userSpaceOnUse">
<stop stop-color="#531FC1"/>
<stop offset="0.604167" stop-color="#A082E0"/>
<stop offset="1" stop-color="#3F85C6"/>
</linearGradient>
<linearGradient id="paint14_linear" x1="88.5" y1="87" x2="88.5" y2="131" gradientUnits="userSpaceOnUse">
<stop stop-color="#481CA6"/>
<stop offset="0.703125" stop-color="#8BBFDC"/>
<stop offset="1" stop-opacity="0"/>
</linearGradient>
</defs>
</svg>
